# xmcd CD database file
#
# Track frame offsets:
#	150
#	15223
#	33045
#	49133
#	66673
#	82713
#	101220
#	117936
#	136358
#	153818
#	167572
#	180919
#
# Disc length: 2622 seconds
#
# Revision: 0
# Processed by: cddbd v1.5.1PL2 Copyright (c) Steve Scherf et al.
# Submitted via: CDex 1.51
#
DISCID=870a3c0c
DTITLE=Steve Hill - House for Sale
DYEAR=2000
DGENRE=Country
TTITLE0=01-House for Sale
TTITLE1=02-Mom and Dad
TTITLE2=03-Tomorrow's Just Begun
TTITLE3=04-One Thin Line
TTITLE4=05-The Hardest Thing
TTITLE5=06-I Thought They Would
TTITLE6=07-Salt Water Sailor
TTITLE7=08-Whispering Pine
TTITLE8=09-Tommy
TTITLE9=10-Bidin' My Time
TTITLE10=11-Maybe Lucky
TTITLE11=12-Dixie Chicken
EXTD=YEAR: 2000
EXTT0=
EXTT1=
EXTT2=
EXTT3=
EXTT4=
EXTT5=
EXTT6=
EXTT7=
EXTT8=
EXTT9=
EXTT10=
EXTT11=
PLAYORDER=
